<svg xmlns="http://www.w3.org/2000/svg" fill="none" viewBox="0 0 64 64" aria-hidden="true"><path fill="#fff" stroke="#B6B6B6" stroke-miterlimit="10" stroke-width=".15" d="M32 62.72c16.966 0 30.72-13.754 30.72-30.72S48.966 1.28 32 1.28 1.28 15.034 1.28 32 15.034 62.72 32 62.72z"/><path fill="#fff" stroke="#B6B6B6" stroke-miterlimit="10" stroke-width=".15" d="M32 62.72c16.966 0 30.72-13.754 30.72-30.72S48.966 1.28 32 1.28 1.28 15.034 1.28 32 15.034 62.72 32 62.72z"/><path fill="#ED2224" d="M1.28 32c0 8.992 3.872 17.056 10.048 22.656V9.344C5.152 14.944 1.28 23.008 1.28 32zM62.72 32c0-9.344-4.192-17.728-10.784-23.36v46.72C58.528 49.728 62.72 41.344 62.72 32zM40 38.944l8.032-6.528-1.664-.768c-.736-.256-.544-.672-.256-1.664l1.216-4.448-4.672.992c-.448.064-.768-.224-.832-.48l-.608-2.112-3.68 4.128c-.512.672-1.6.672-1.248-.864l1.568-8.352-2.112 1.088c-.608.32-1.184.384-1.504-.192l-2.912-5.44-2.912 5.44c-.32.576-.928.544-1.536.192l-2.144-1.152 1.568 8.352c.352 1.568-.704 1.568-1.248.896l-3.68-4.128-.608 2.112c-.064.256-.352.544-.832.48l-4.64-.992 1.216 4.448c.256.992.48 1.408-.256 1.664l-1.664.768 8.032 6.528c.32.256.48.704.352 1.088l-.704 2.304 8-.928c.256 0 .64.192.64.48l-.352 8.448h1.344l-.192-8.384c0-.288.384-.512.608-.512l8 .928-.704-2.304c-.096-.416.064-.864.384-1.088z"/><path fill="#CCC" d="M32 1.6c16.64 0 30.4 13.76 30.4 30.4S48.64 62.4 32 62.4 1.6 48.64 1.6 32 15.36 1.6 32 1.6zM32 0C14.4 0 0 14.4 0 32s14.4 32 32 32 32-14.4 32-32S49.6 0 32 0z"/></svg>