<svg xmlns="http://www.w3.org/2000/svg" fill="none" viewBox="0 0 64 64" aria-hidden="true"><path fill="#D72526" d="M32 1.28C15.034 1.28 1.28 15.034 1.28 32S15.034 62.72 32 62.72 62.72 48.966 62.72 32 48.966 1.28 32 1.28z"/><path fill="#fff" d="M38.144 11.52H25.856v14.336H11.52v12.288h14.336V52.48h12.288V38.144H52.48V25.856H38.144V11.52z"/><path fill="#CCC" d="M32 1.6c16.64 0 30.4 13.76 30.4 30.4S48.64 62.4 32 62.4 1.6 48.64 1.6 32 15.36 1.6 32 1.6zM32 0C14.4 0 0 14.4 0 32s14.4 32 32 32 32-14.4 32-32S49.6 0 32 0z"/></svg>