<svg xmlns="http://www.w3.org/2000/svg" fill="none" viewBox="0 0 64 64" aria-hidden="true"><path fill="#fff" stroke="#B6B6B6" stroke-width=".15" d="M32 62.72c16.966 0 30.72-13.754 30.72-30.72S48.966 1.28 32 1.28 1.28 15.034 1.28 32 15.034 62.72 32 62.72z"/><path fill="#273476" d="M7.888 50.998a30.713 30.713 0 0014.115 10.026V43.936L7.888 50.998zM56.253 50.806l-13.738-6.87v16.893c.02-.007.035-.016.051-.023a31.313 31.313 0 003.722-1.664c.134-.07.269-.144.403-.217a30.5 30.5 0 003.223-2.032c.105-.074.21-.144.316-.221a30.586 30.586 0 006.023-5.866zM22.003 19.92V2.976a31.089 31.089 0 00-3.894 1.66c-.138.071-.275.151-.413.225a31.127 31.127 0 00-3.136 1.907c-.192.134-.387.269-.576.406a30.72 30.72 0 00-2.826 2.317c-.118.112-.243.211-.361.323a30.482 30.482 0 00-2.832 3.088l14.038 7.018zM56.176 13.091a30.714 30.714 0 00-13.66-9.923v16.755l13.66-6.832z"/><path fill="#fff" d="M3.046 42.186a30.389 30.389 0 001.524 3.587l7.18-3.587H3.046z"/><path fill="#D0202D" d="M11.75 42.186l-7.18 3.587a30.422 30.422 0 002.07 3.552l14.282-7.14H11.75zM11.75 21.67l-7.116-3.552c-.016.036-.039.07-.058.106a31.278 31.278 0 00-1.478 3.446h8.652zM52.774 21.67l6.704-3.35c-.614-1.232-1.283-2.429-2.05-3.562L43.6 21.67h9.174zM59.533 45.565a30.5 30.5 0 001.42-3.38h-8.179l6.759 3.38z"/><path fill="#D0202D" d="M62.112 38.083c.218-1.078.365-2.185.467-3.299.035-.365.039-.74.055-1.114.041-.8.064-1.6.044-2.412-.01-.445-.038-.884-.067-1.325-.045-.73-.125-1.46-.224-2.195-.086-.621-.163-1.248-.285-1.856-.006-.039-.016-.07-.022-.106H38.413V1.962c-.74-.157-1.498-.26-2.26-.362a31.832 31.832 0 00-1.961-.202 28.576 28.576 0 00-1.488-.08c-.8-.016-1.59.004-2.378.045-.368.023-.742.023-1.107.055a30.959 30.959 0 00-3.11.441v23.917H1.914l-.004.013c-.025.125-.035.259-.057.384a29.446 29.446 0 00-.426 3.027c-.038.384-.038.774-.06 1.162-.042.79-.065 1.58-.045 2.387.01.432.038.867.064 1.293.044.723.124 1.446.224 2.179.086.614.156 1.235.275 1.84.003.01.003.019.006.025H26.11v24.061c.585.115 1.187.186 1.785.266a32.3 32.3 0 001.815.189c.521.038 1.043.08 1.574.09.695.015 1.38-.01 2.064-.04.589-.025 1.181-.05 1.76-.108a30.45 30.45 0 001.888-.269c.464-.073.935-.125 1.389-.224l.032-.01V38.09h23.696v-.007z"/><path fill="#CCC" d="M32 1.6c16.64 0 30.4 13.76 30.4 30.4S48.64 62.4 32 62.4 1.6 48.64 1.6 32 15.36 1.6 32 1.6zM32 0C14.4 0 0 14.4 0 32s14.4 32 32 32 32-14.4 32-32S49.6 0 32 0z"/></svg>