<svg xmlns="http://www.w3.org/2000/svg" fill="none" viewBox="0 0 64 64" aria-hidden="true"><path fill="#fff" stroke="#B6B6B6" stroke-miterlimit="10" stroke-width=".15" d="M32 62.72c16.966 0 30.72-13.754 30.72-30.72S48.966 1.28 32 1.28 1.28 15.034 1.28 32 15.034 62.72 32 62.72z"/><path fill="#BD2031" d="M32.432 50.864c10.18 0 18.432-8.252 18.432-18.432C50.864 22.252 42.612 14 32.432 14 22.252 14 14 22.252 14 32.432c0 10.18 8.252 18.432 18.432 18.432z"/><path fill="#CCC" d="M32 1.6c16.64 0 30.4 13.76 30.4 30.4S48.64 62.4 32 62.4 1.6 48.64 1.6 32 15.36 1.6 32 1.6zM32 0C14.4 0 0 14.4 0 32s14.4 32 32 32 32-14.4 32-32S49.6 0 32 0z"/></svg>